Coordinates
version=1
nRows=21
nColumns=22
inDegrees=yes

Units are S.I. units (second, meters, Newtons, ...)
If the header above contains a line with 'inDegrees', this indicates whether rotational values are in degrees (yes) or radians (no).

endheader
time	pelvis_tilt	pelvis_list	pelvis_rotation	pelvis_tx	pelvis_ty	pelvis_tz	hip_flexion_r	hip_adduction_r	hip_rotation_r	knee_angle_r	ankle_angle_r	subtalar_angle_r	hip_flexion_l	hip_adduction_l	hip_rotation_l	knee_angle_l	ankle_angle_l	subtalar_angle_l	lumbar_extension	lumbar_bending	lumbar_rotation
      0.01000000	      0.51413753	     -2.19569782	     -3.17566164	      1.07516955	      0.92473643	      0.12128394	     -4.06106886	      2.97940177	     -2.77491621	     -5.51639247	      4.67121646	      0.98353649	     -3.33461661	     -3.27312106	    -11.68707127	     -8.32349229	      8.10542448	     -0.98904953	     -3.31103037	     -0.85626561	      1.66560310
      0.02000000	      0.51100221	     -2.20104965	     -3.18103549	      1.07516729	      0.92473556	      0.12123251	     -4.05765113	      2.98093799	     -2.77496361	     -5.51518698	      4.66981130	      0.98386802	     -3.33431528	     -3.27393458	    -11.68621435	     -8.32014580	      8.10638860	     -0.98991138	     -3.31884322	     -0.85919791	      1.66683708
      0.03000000	      0.51726364	     -2.21747675	     -3.20313920	      1.07515409	      0.92475147	      0.12119252	     -4.05383281	      2.99194461	     -2.73606191	     -5.53586828	      4.64970179	      0.98730106	     -3.35660359	     -3.28226643	    -11.68840985	     -8.29703376	      8.11507146	     -1.00143169	     -3.34078503	     -0.84990774	      1.69693552
      0.04000000	      0.52556305	     -2.22727341	     -3.23399076	      1.07518676	      0.92476988	      0.12115797	     -4.08203008	      2.99529062	     -2.67583625	     -5.50017632	      4.64415787	      0.99404865	     -3.38484126	     -3.28330578	    -11.74127233	     -8.27378084	      8.11383783	     -1.01751325	     -3.35761087	     -0.84850546	      1.72789907
      0.05000000	      0.52210476	     -2.23260964	     -3.23726313	      1.07516693	      0.92477201	      0.12108228	     -4.07756261	      2.99590305	     -2.67344627	     -5.49862422	      4.64291842	      0.99424607	     -3.38273356	     -3.28295660	    -11.74205366	     -8.27007025	      8.11390649	     -1.01790936	     -3.37078151	     -0.85322320	      1.72812907
      0.06000000	      0.53259064	     -2.23948547	     -3.26076353	      1.07512183	      0.92479864	      0.12102813	     -4.07508568	      2.99505432	     -2.61859656	     -5.52083086	      4.62357599	      0.99699502	     -3.40646105	     -3.28038330	    -11.76230724	     -8.24788819	      8.10929534	     -1.02322785	     -3.40367252	     -0.85552490	      1.73596535
      0.07000000	      0.52723581	     -2.24450109	     -3.26087250	      1.07507749	      0.92480056	      0.12093824	     -4.06967311	      2.99492986	     -2.61698581	     -5.51368526	      4.62392123	      0.99739012	     -3.40276437	     -3.27964886	    -11.76738971	     -8.23887933	      8.10918041	     -1.02361209	     -3.41785780	     -0.85920308	      1.73817626
      0.08000000	      0.53986917	     -2.24444391	     -3.31422434	      1.07505681	      0.92484036	      0.12092399	     -4.08722624	      2.98543574	     -2.51981779	     -5.49963471	      4.60469713	      1.00963236	     -3.45405475	     -3.26459507	    -11.84497740	     -8.17455336	      8.07106365	     -1.03574603	     -3.44585349	     -0.87151107	      1.79559126
      0.09000000	      0.53418916	     -2.24898525	     -3.31213328	      1.07497740	      0.92484617	      0.12082500	     -4.07822340	      2.98494870	     -2.51805697	     -5.49474247	      4.60439062	      1.00996078	     -3.44825496	     -3.26291804	    -11.85043246	     -8.16306558	      8.07169783	     -1.03597095	     -3.46445121	     -0.87477553	      1.79264287
      0.10000000	      0.53417287	     -2.24272800	     -3.33862714	      1.07491047	      0.92487123	      0.12076145	     -4.06578542	      2.96980959	     -2.46952185	     -5.50769199	      4.58977200	      1.01884039	     -3.47237238	     -3.24357333	    -11.89717843	     -8.11022905	      8.03545408	     -1.04556193	     -3.48516496	     -0.89008885	      1.79868220
      0.11000000	      0.52863586	     -2.24749789	     -3.33810914	      1.07482328	      0.92487766	      0.12067328	     -4.05625705	      2.97045546	     -2.46777874	     -5.50255606	      4.58973778	      1.01909279	     -3.46584553	     -3.24271790	    -11.90167486	     -8.09965263	      8.03592057	     -1.04590849	     -3.50366442	     -0.89520965	      1.79579485
      0.12000000	      0.52612677	     -2.24928507	     -3.34354863	      1.07474539	      0.92489149	      0.12059499	     -4.04027541	      2.96690152	     -2.44193593	     -5.51905314	      4.58104469	      1.01972773	     -3.46803095	     -3.23724874	    -11.91963502	     -8.07918604	      8.02958249	     -1.04924623	     -3.52300583	     -0.90274454	      1.77485358
      0.13000000	      0.52268647	     -2.25405172	     -3.35262349	      1.07468833	      0.92489803	      0.12053180	     -4.03366929	      2.96763857	     -2.44006010	     -5.51468461	      4.58070495	      1.01986723	     -3.46338466	     -3.23652201	    -11.92017772	     -8.07642216	      8.02824377	     -1.04998769	     -3.53740054	     -0.90841125	      1.77418111
      0.14000000	      0.53248679	     -2.25682336	     -3.37416891	      1.07460481	      0.92492364	      0.12049639	     -4.02783678	      2.96501124	     -2.39635622	     -5.53496131	      4.57076049	      1.01943363	     -3.45931772	     -3.23490188	    -11.91698789	     -8.10268277	      8.01916161	     -1.05685937	     -3.57031696	     -0.91902320	      1.78448733
      0.15000000	      0.54418604	     -2.26373142	     -3.39698594	      1.07455148	      0.92494487	      0.12047527	     -4.03427817	      2.96831742	     -2.35781389	     -5.53921621	      4.56704188	      1.01823580	     -3.45418801	     -3.23892879	    -11.91659539	     -8.13934527	      8.02414990	     -1.06614231	     -3.59946026	     -0.92641316	      1.80627604
      0.16000000	      0.56704456	     -2.28313767	     -3.43002842	      1.07451082	      0.92497414	      0.12048986	     -4.05953060	      2.98529974	     -2.29481279	     -5.53201018	      4.55981413	      1.01160346	     -3.45801178	     -3.25947026	    -11.94856254	     -8.19073314	      8.06762910	     -1.09102364	     -3.63848633	     -0.92279686	      1.83021239
      0.17000000	      0.58120570	     -2.29016471	     -3.44730396	      1.07444307	      0.92499707	      0.12045723	     -4.06212713	      2.98798979	     -2.27380694	     -5.54670815	      4.55421111	      1.00931319	     -3.44955377	     -3.26400004	    -11.92225785	     -8.23510725	      8.06912722	     -1.09517726	     -3.66882403	     -0.92766005	      1.84484271
      0.18000000	      0.59782565	     -2.29917011	     -3.45875873	      1.07434700	      0.92502120	      0.12043060	     -4.06402675	      2.99437477	     -2.24354431	     -5.56453379	      4.55104346	      1.00588315	     -3.43953779	     -3.27324325	    -11.90345093	     -8.28362758	      8.08063287	     -1.10091914	     -3.70617535	     -0.93454552	      1.85281974
      0.19000000	      0.61274827	     -2.30845944	     -3.46474390	      1.07423132	      0.92504354	      0.12038668	     -4.06201812	      3.00082058	     -2.21331403	     -5.58474488	      4.54979440	      1.00146049	     -3.42894370	     -3.28237234	    -11.89484670	     -8.32409013	      8.09548859	     -1.10760978	     -3.74325205	     -0.93909486	      1.85518186
      0.20000000	      0.62437553	     -2.31656270	     -3.46504809	      1.07410049	      0.92506356	      0.12031990	     -4.05368583	      3.00581041	     -2.18635644	     -5.60878512	      4.55007761	      0.99653372	     -3.41817891	     -3.28833507	    -11.89387266	     -8.35347553	      8.10772920	     -1.11462703	     -3.77714213	     -0.94270345	      1.85379265
      0.21000000	      0.63407428	     -2.32260446	     -3.46159417	      1.07394987	      0.92508131	      0.12023799	     -4.03834827	      3.00786693	     -2.16132561	     -5.63946707	      4.55155502	      0.99174638	     -3.40631624	     -3.29171838	    -11.89487557	     -8.37635271	      8.11471998	     -1.12148263	     -3.81020926	     -0.94779164	      1.85007840
